<svg xmlns="http://www.w3.org/2000/svg" xmlns:xlink="http://www.w3.org/1999/xlink" width="1000" height="1000">
  <defs>
    <filter id="a" width="107.3%" height="107.3%" x="-3.7%" y="-2.6%" filterUnits="objectBoundingBox">
      <feOffset dy="2" in="SourceAlpha" result="shadowOffsetOuter1"/>
      <feGaussianBlur in="shadowOffsetOuter1" result="shadowBlurOuter1" stdDeviation="2"/>
      <feColorMatrix in="shadowBlurOuter1" values="0 0 0 0 0 0 0 0 0 0 0 0 0 0 0 0 0 0 0.5 0"/>
    </filter>
    <filter id="c" width="109.9%" height="109.9%" x="-4.9%" y="-3.5%" filterUnits="objectBoundingBox">
      <feOffset dy="2" in="SourceAlpha" result="shadowOffsetOuter1"/>
      <feGaussianBlur in="shadowOffsetOuter1" result="shadowBlurOuter1" stdDeviation="2"/>
      <feColorMatrix in="shadowBlurOuter1" values="0 0 0 0 0 0 0 0 0 0 0 0 0 0 0 0 0 0 0.5 0"/>
    </filter>
    <filter id="e" width="109.9%" height="109.9%" x="-5%" y="-3.5%" filterUnits="objectBoundingBox">
      <feOffset dy="2" in="SourceAlpha" result="shadowOffsetOuter1"/>
      <feGaussianBlur in="shadowOffsetOuter1" result="shadowBlurOuter1" stdDeviation="2"/>
      <feColorMatrix in="shadowBlurOuter1" values="0 0 0 0 0 0 0 0 0 0 0 0 0 0 0 0 0 0 0.5 0"/>
    </filter>
    <filter id="g" width="112.7%" height="112.7%" x="-6.4%" y="-4.5%" filterUnits="objectBoundingBox">
      <feOffset dy="2" in="SourceAlpha" result="shadowOffsetOuter1"/>
      <feGaussianBlur in="shadowOffsetOuter1" result="shadowBlurOuter1" stdDeviation="2"/>
      <feColorMatrix in="shadowBlurOuter1" values="0 0 0 0 0 0 0 0 0 0 0 0 0 0 0 0 0 0 0.5 0"/>
    </filter>
    <filter id="i" width="108%" height="108%" x="-4%" y="-2.9%" filterUnits="objectBoundingBox">
      <feOffset dy="2" in="SourceAlpha" result="shadowOffsetOuter1"/>
      <feGaussianBlur in="shadowOffsetOuter1" result="shadowBlurOuter1" stdDeviation="2"/>
      <feColorMatrix in="shadowBlurOuter1" values="0 0 0 0 0 0 0 0 0 0 0 0 0 0 0 0 0 0 0.5 0"/>
    </filter>
    <filter id="k" width="107.4%" height="107.4%" x="-3.7%" y="-2.6%" filterUnits="objectBoundingBox">
      <feOffset dy="2" in="SourceAlpha" result="shadowOffsetOuter1"/>
      <feGaussianBlur in="shadowOffsetOuter1" result="shadowBlurOuter1" stdDeviation="2"/>
      <feColorMatrix in="shadowBlurOuter1" values="0 0 0 0 0 0 0 0 0 0 0 0 0 0 0 0 0 0 0.5 0"/>
    </filter>
    <circle id="b" cx="255.5" cy="764.5" r="95.5"/>
    <circle id="d" cx="591" cy="674" r="71"/>
    <circle id="h" cx="551" cy="165" r="55"/>
    <circle id="l" cx="194.5" cy="132" r="95"/>
    <ellipse id="f" cx="110.5" cy="477" rx="70.5" ry="71"/>
    <ellipse id="j" cx="827" cy="414.5" rx="88" ry="87.5"/>
  </defs>
  <g fill="none" fill-rule="evenodd">
    <g transform="translate(18 51)">
      <circle cx="194.5" cy="132.5" r="132.5" fill="#39505D"/>
      <circle cx="424.5" cy="432.5" r="162.5" fill="#39505D"/>
      <circle cx="254.5" cy="764.5" r="132.5" fill="#39505D"/>
      <circle cx="828" cy="415" r="125" fill="#39505D"/>
      <use fill="#000" filter="url(#a)" xlink:href="#b"/>
      <use fill="#FFF" xlink:href="#b"/>
      <circle cx="110" cy="477" r="110" fill="#39505D"/>
      <circle cx="591" cy="674" r="110" fill="#39505D"/>
      <use fill="#000" filter="url(#c)" xlink:href="#d"/>
      <use fill="#42D5C2" xlink:href="#d"/>
      <use fill="#000" filter="url(#e)" xlink:href="#f"/>
      <use fill="#FFF" xlink:href="#f"/>
      <circle cx="550.5" cy="165.5" r="92.5" fill="#39505D"/>
      <g>
        <use fill="#000" filter="url(#g)" xlink:href="#h"/>
        <use fill="#FDD600" xlink:href="#h"/>
      </g>
      <g>
        <use fill="#000" filter="url(#i)" xlink:href="#j"/>
        <use fill="#FFF" xlink:href="#j"/>
      </g>
      <g>
        <use fill="#000" filter="url(#k)" xlink:href="#l"/>
        <use fill="#59A9FA" xlink:href="#l"/>
      </g>
    </g>
    <g stroke="#39505D" stroke-linecap="square" stroke-width="40">
      <path d="M230 507l56.5-7M320.5 698.5l42-75M286.5 284.5l52 70M535 299l-17 34M597.5 477.5l134-12M526.5 615l23.5 32"/>
    </g>
    <path fill="#FFF" d="M509.493 432.427l-68.25 20.021-8.564 34.72 29.577 21.16 65.564-18.341C524.997 532.992 489.22 567 445.5 567c-15.01 0-29.083-4.008-41.208-11.013a15.96 15.96 0 00-.97-.21c-2.383-.437-5.438.058-9.166 1.484l-67.4 41.313c-11.243-11.406-18.873-20.358-22.89-26.858-4.019-6.5-8.605-16.159-13.76-28.976l65.006-40.669c3.584-2.775 6.213-6.299 7.888-10.571.083-.212.164-.425.242-.64-.16-2.099-.242-4.22-.242-6.36 0-45.563 36.937-82.5 82.5-82.5 25.817 0 48.865 11.859 63.993 30.427z"/>
  </g>
</svg>
